HIERARCHY
ROOT root
{
	OFFSET 0.000000 0.000000 0.000000
	CHANNELS 6 Xposition Yposition Zposition Zrotation Yrotation Xrotation
	JOINT lhip
	{
		OFFSET 0.058581 -0.082280 -0.017664
		CHANNELS 3 Zrotation Yrotation Xrotation
		JOINT lknee
		{
			OFFSET 0.043451 -0.386469 0.008037
			CHANNELS 3 Zrotation Yrotation Xrotation
			JOINT lankle
			{
				OFFSET -0.014790 -0.426874 -0.037428
				CHANNELS 3 Zrotation Yrotation Xrotation
				JOINT ltoe
				{
					OFFSET 0.041054 -0.060286 0.122042
					CHANNELS 3 Zrotation Yrotation Xrotation
					End Site
					{
						OFFSET 0.000000 0.000000 0.000000
					}
				}
			}
		}
	}
	JOINT rhip
	{
		OFFSET -0.060310 -0.090513 -0.013543
		CHANNELS 3 Zrotation Yrotation Xrotation
		JOINT rknee
		{
			OFFSET -0.043257 -0.383688 -0.004843
			CHANNELS 3 Zrotation Yrotation Xrotation
			JOINT rankle
			{
				OFFSET 0.019056 -0.420046 -0.034562
				CHANNELS 3 Zrotation Yrotation Xrotation
				JOINT rtoe
				{
					OFFSET -0.034840 -0.062106 0.130323
					CHANNELS 3 Zrotation Yrotation Xrotation
					End Site
					{
						OFFSET 0.000000 0.000000 0.000000
					}
				}
			}
		}
	}
	JOINT lowerback
	{
		OFFSET 0.004439 0.124404 -0.038385
		CHANNELS 3 Zrotation Yrotation Xrotation
		JOINT upperback
		{
			OFFSET 0.004488 0.137956 0.026820
			CHANNELS 3 Zrotation Yrotation Xrotation
			JOINT chest
			{
				OFFSET -0.002265 0.056032 0.002855
				CHANNELS 3 Zrotation Yrotation Xrotation
				JOINT lowerneck
				{
					OFFSET -0.013390 0.211636 -0.033468
					CHANNELS 3 Zrotation Yrotation Xrotation
					JOINT upperneck
					{
						OFFSET 0.010113 0.088937 0.050410
						CHANNELS 3 Zrotation Yrotation Xrotation
						End Site
						{
							OFFSET 0.000000 0.000000 0.000000
						}
					}
				}
				JOINT lclavicle
				{
					OFFSET 0.071702 0.114000 -0.018898
					CHANNELS 3 Zrotation Yrotation Xrotation
					JOINT lshoulder
					{
						OFFSET 0.122921 0.045205 -0.019046
						CHANNELS 3 Zrotation Yrotation Xrotation
						JOINT lelbow
						{
							OFFSET 0.255332 -0.015649 -0.022946
							CHANNELS 3 Zrotation Yrotation Xrotation
							JOINT lwrist
							{
								OFFSET 0.265709 0.012698 -0.007375
								CHANNELS 3 Zrotation Yrotation Xrotation
								End Site
								{
									OFFSET 0.000000 0.000000 0.000000
								}
							}
						}
					}
				}
				JOINT rclavicle
				{
					OFFSET -0.082954 0.112472 -0.023707
					CHANNELS 3 Zrotation Yrotation Xrotation
					JOINT rshoulder
					{
						OFFSET -0.113228 0.046853 -0.008472
						CHANNELS 3 Zrotation Yrotation Xrotation
						JOINT relbow
						{
							OFFSET -0.260127 -0.014369 -0.031269
							CHANNELS 3 Zrotation Yrotation Xrotation
							JOINT rwrist
							{
								OFFSET -0.269108 0.006794 -0.006027
								CHANNELS 3 Zrotation Yrotation Xrotation
								End Site
								{
									OFFSET 0.000000 0.000000 0.000000
								}
							}
						}
					}
				}
			}
		}
	}
}
MOTION
Frames: 11
Frame Time: 0.033333
0.103221 0.545236 0.983415 -33.407700 2.897494 87.411874 4.695664 5.605085 -1.374957 -7.429757 -3.283555 17.950278 2.445964 9.025759 -16.414785 0.000000 -0.000000 0.000000 -1.339987 -7.129659 -13.514102 5.462729 -15.875075 6.685106 4.922222 -8.642034 2.307006 0.000000 -0.000000 0.000000 -0.594062 1.336952 18.234336 0.718689 0.432296 -5.905714 2.094020 -0.995537 0.718626 6.067358 -8.870233 -6.434023 5.688480 -9.139677 4.713237 -28.504687 -1.487698 -1.352447 -48.155545 -11.067711 5.662239 13.377881 -25.644039 -3.667895 12.034330 -6.171545 3.672459 23.088398 3.673267 -0.924494 45.397466 4.228353 10.374177 -6.404995 30.475331 4.328008 -3.248969 2.614759 -0.724046 
0.115225 0.551378 0.983714 -33.832446 2.871587 87.980720 3.780048 5.050992 -2.660032 -7.215614 -2.554391 17.281470 2.799743 9.112127 -16.051559 0.000000 -0.000000 0.000000 -1.385524 -6.362339 -15.256483 4.839115 -15.921333 6.665388 5.832250 -9.609866 3.549593 0.000000 -0.000000 0.000000 -1.083824 1.280257 18.785760 0.721722 0.448412 -6.511621 2.236253 -0.919986 1.232369 6.169108 -8.765822 -6.768974 5.971157 -8.970159 4.106876 -27.885155 -1.600240 -1.210437 -48.538145 -11.680739 5.472502 13.830912 -23.721896 -3.556167 8.412518 -6.058886 2.719754 22.608916 3.428595 -1.034129 46.358977 4.925268 10.575797 -7.336286 30.956119 4.553460 0.935304 2.313632 -0.664649 
0.126643 0.557020 0.984052 -34.290020 2.844431 88.591042 3.000107 4.878646 -3.849718 -7.055485 -2.037887 16.401422 3.358391 8.466257 -15.800542 0.000000 -0.000000 0.000000 -1.474673 -6.191661 -17.213263 4.301133 -15.851147 7.280981 6.395926 -9.956226 4.272868 0.000000 -0.000000 0.000000 -1.506264 1.209612 19.084498 0.750272 0.476504 -6.736101 2.246322 -0.970087 1.457670 6.309613 -8.651273 -7.159200 6.150527 -9.183179 3.991143 -27.618871 -1.514288 -0.851952 -48.180907 -11.791695 5.267160 13.826203 -23.005060 -3.702394 5.088687 -5.569290 2.015346 22.511087 3.305069 -1.131006 46.793165 5.292379 11.041929 -7.597577 31.728856 4.470624 4.277843 2.475275 -1.588678 
0.143295 0.565740 0.984393 -35.072700 2.971777 89.710847 2.181221 4.959072 -5.904628 -6.858490 -1.094175 15.342486 4.012301 8.217968 -14.927404 0.000000 -0.000000 0.000000 -1.726325 -6.233328 -21.071304 3.553136 -16.334156 10.088360 8.095455 -10.057815 2.561672 0.000000 -0.000000 0.000000 -2.055731 1.033593 19.133261 0.846249 0.579742 -6.778766 2.302040 -1.147257 1.621693 6.625699 -8.272754 -7.741962 6.377204 -9.203228 3.985363 -27.292671 -1.505614 -0.354741 -47.813370 -11.645647 4.917516 14.490661 -22.074310 -4.578759 -0.295268 -4.716404 1.863959 22.241729 3.059345 -1.091337 47.417384 5.744794 11.351737 -7.913341 33.478173 5.139875 12.325112 3.064826 -2.326070 
0.148279 0.568354 0.984648 -35.313308 3.106286 90.026506 2.021624 4.870874 -6.394360 -6.775004 -0.868241 14.810028 4.137708 8.157395 -14.670656 0.000000 -0.000000 0.000000 -1.752512 -6.325828 -22.183471 3.475792 -16.500896 10.926629 8.721780 -9.966740 1.926840 0.000000 -0.000000 0.000000 -2.177023 0.970814 19.004989 0.926795 0.558477 -6.611185 2.316848 -1.158528 1.617327 6.736641 -8.063208 -7.735541 6.495366 -9.163130 3.872367 -27.163098 -1.621084 -0.229634 -47.776193 -11.591807 4.918819 14.642746 -21.464946 -4.865745 -0.364761 -4.787352 1.937172 22.083026 3.033874 -0.995266 47.776381 5.781319 11.455736 -8.440720 33.603226 5.239414 13.218815 2.824418 -1.941980 
0.157424 0.572930 0.985552 -35.666934 3.533403 90.534960 1.899874 4.849320 -7.229461 -6.572687 -0.638816 13.923442 4.277433 8.083120 -13.997067 0.000000 -0.000000 0.000000 -1.658210 -6.164093 -23.807736 3.449797 -16.723184 11.914631 9.389258 -10.111316 1.186276 0.000000 -0.000000 0.000000 -2.213398 0.747869 19.099067 1.058916 0.525275 -6.468436 2.344220 -1.210643 1.375829 6.905061 -7.713737 -7.727631 6.575229 -8.901412 3.669225 -27.077069 -1.607236 0.004929 -47.568229 -11.566312 4.774588 14.655669 -20.319354 -5.001999 0.218525 -5.173372 2.430781 22.026974 2.802880 -0.702345 48.061820 5.948209 11.499789 -8.351948 33.870202 5.505412 13.077794 3.178654 -2.173987 
0.165493 0.577285 0.986644 -36.082871 3.943060 90.904215 1.891754 4.706707 -7.968973 -6.452726 -0.198548 13.224441 4.341422 8.104682 -13.269257 0.000000 -0.000000 0.000000 -1.467106 -5.817331 -25.199073 3.252429 -16.856339 12.992968 9.731691 -10.011944 0.287085 0.000000 -0.000000 0.000000 -2.313665 0.548233 19.203604 1.218444 0.477022 -6.421458 2.390548 -1.218005 1.371971 7.040280 -7.424630 -7.640461 6.700352 -8.855129 3.627580 -26.968281 -1.599418 0.034765 -47.487866 -11.512396 4.642820 14.696387 -19.494646 -5.404947 0.872993 -5.355046 2.732160 21.923353 2.677958 -0.551683 48.524448 6.055788 11.609624 -8.559319 33.802861 5.483718 12.393716 3.304381 -2.030367 
0.172196 0.581445 0.987796 -36.487140 4.461905 91.104088 2.182300 4.789707 -8.621445 -6.383062 0.332024 12.837159 4.179568 7.985603 -12.730832 0.000000 -0.000000 0.000000 -1.131931 -5.565671 -26.196816 2.974831 -17.469666 14.079113 9.489969 -10.124475 -0.545934 0.000000 -0.000000 0.000000 -2.241539 0.412705 19.383378 1.274699 0.474804 -6.462064 2.474335 -1.273141 1.375709 6.958305 -6.834909 -7.476602 6.874479 -8.496287 3.457909 -26.871511 -1.573382 0.188654 -47.371748 -11.419003 4.367441 14.711783 -19.379751 -5.624360 0.892720 -5.260522 2.776466 21.867046 2.638755 -0.425919 48.789737 5.934704 11.631755 -8.389057 33.693178 5.887873 12.341225 3.336268 -2.334199 
0.177517 0.584804 0.989019 -36.817992 4.912390 91.072259 2.495372 4.740495 -9.091707 -6.430441 0.551447 12.850111 4.236881 8.192273 -12.256288 0.000000 -0.000000 0.000000 -0.975661 -5.603014 -26.869086 2.651374 -17.815842 16.347975 8.659968 -10.721127 -0.962398 0.000000 -0.000000 0.000000 -2.221981 0.379881 19.486831 1.386739 0.502917 -6.398250 2.536651 -1.332148 1.365787 6.958757 -6.649090 -7.321254 6.847287 -8.294297 3.564868 -26.846563 -1.571594 0.346019 -47.260108 -11.382133 4.179047 14.788078 -19.608508 -5.607953 0.840276 -5.265913 2.417105 21.828791 2.576041 -0.209362 48.986427 5.660665 11.599366 -8.394312 33.451337 6.303620 12.463060 3.237087 -2.085050 
0.181903 0.587199 0.990483 -37.043881 5.235460 90.990649 2.623606 4.541978 -9.305326 -6.406358 0.717498 12.679651 4.402607 8.573474 -11.800772 0.000000 -0.000000 0.000000 -0.949081 -5.614116 -27.259565 2.398140 -17.812421 19.850426 7.831467 -11.363292 -2.114530 0.000000 -0.000000 0.000000 -2.208070 0.326273 19.365712 1.522237 0.558765 -6.244489 2.459656 -1.337606 1.527847 7.121999 -6.858035 -7.450482 6.801839 -8.599150 3.780839 -26.993709 -1.502488 0.213141 -47.057458 -11.455309 4.133799 14.784197 -20.130106 -5.634643 0.574773 -5.025164 2.423732 22.011882 2.472126 -0.350088 49.009413 5.260110 11.543051 -8.336661 32.911664 6.523909 13.237704 3.093656 -1.492455 
0.185487 0.589259 0.991818 -37.216970 5.545149 90.883445 2.804647 4.516334 -9.455337 -6.452148 0.678790 12.612268 4.478975 8.881821 -11.580228 0.000000 -0.000000 0.000000 -0.946024 -4.905058 -27.066653 2.247999 -17.093781 23.458999 7.169987 -11.151671 -3.731850 0.000000 -0.000000 0.000000 -2.183106 0.253270 19.112126 1.681139 0.616271 -5.966500 2.408318 -1.345345 1.488657 7.183779 -6.650209 -7.427651 6.608900 -8.557521 3.965009 -27.201892 -1.589376 0.262689 -46.966078 -11.375846 4.142669 14.939484 -20.919941 -5.898370 0.668888 -4.900676 2.431599 22.101662 2.461538 -0.220970 48.936039 4.930251 11.506877 -8.121685 32.392020 6.921170 13.669213 3.144001 -1.278783 
